<svg width="20" height="26" viewBox="0 0 20 26" fill="none" xmlns="http://www.w3.org/2000/svg">
<g clip-path="url(#clip0_57580_18)">
<path fill-rule="evenodd" clip-rule="evenodd" d="M19.5395 7.80526C19.6802 7.33158 19.5395 7 18.883 7H16.6946C16.1318 7 15.8817 7.3 15.741 7.63158C15.741 7.63158 14.6312 10.3789 13.0524 12.1474C12.5366 12.6684 12.3177 12.8263 12.0363 12.8263C11.8957 12.8263 11.6924 12.6684 11.6924 12.1947V7.80526C11.6924 7.23684 11.5361 7 11.0672 7H7.62823C7.28433 7 7.06549 7.26842 7.06549 7.50526C7.06549 8.0421 7.84707 8.16842 7.94086 9.65263V12.9053C7.94086 13.6158 7.81581 13.7421 7.53444 13.7421C6.79975 13.7421 4.98648 10.9947 3.92353 7.83684C3.70469 7.25263 3.50148 7 2.93874 7H0.750317C0.125053 7 0 7.3 0 7.63158C0 8.21579 0.734686 11.1211 3.45459 14.9579C5.26785 17.5789 7.81581 19 10.1293 19C11.5205 19 11.6924 18.6842 11.6924 18.1474V16.1579C11.6924 15.5263 11.8175 15.4 12.2708 15.4C12.5991 15.4 13.1462 15.5579 14.4436 16.8211C15.9286 18.3211 16.1787 19 17.0072 19H19.1956C19.8209 19 20.1335 18.6842 19.9459 18.0684C19.7427 17.4526 19.0393 16.5526 18.1014 15.4789C17.5856 14.8632 16.8196 14.2158 16.6008 13.8842C16.2725 13.4579 16.3663 13.2684 16.6008 12.9053C16.6008 12.8895 19.2738 9.1 19.5395 7.80526Z" fill="#A6A6A6"/>
</g>
<defs>
<clipPath id="clip0_57580_18">
<rect width="20" height="26" fill="white"/>
</clipPath>
</defs>
</svg>
