<svg width="22" height="26" viewBox="0 0 22 26" fill="none" xmlns="http://www.w3.org/2000/svg">
<path d="M19.5196 4.00168C19.2611 4.01372 19.0177 4.08901 18.8013 4.17333H18.7983C18.5789 4.26066 17.536 4.70033 15.9521 5.36586C14.3682 6.03441 12.3124 6.9017 10.2717 7.76298C6.1963 9.48251 2.18999 11.1749 2.18999 11.1749L2.23808 11.1569C2.23808 11.1569 1.96158 11.2472 1.67305 11.446C1.52578 11.5423 1.36349 11.6749 1.22223 11.8826C1.08097 12.0904 0.966764 12.4096 1.00884 12.7379C1.07797 13.295 1.43863 13.6293 1.6971 13.813C1.95857 13.9997 2.20803 14.087 2.20803 14.087H2.21404L5.97089 15.3548C6.13919 15.8969 7.11597 19.1131 7.3504 19.8539C7.48865 20.2966 7.6239 20.5737 7.79221 20.7845C7.87335 20.8929 7.96953 20.9832 8.08374 21.0555C8.12882 21.0826 8.17691 21.1037 8.225 21.1218C8.24002 21.1308 8.25505 21.1338 8.27308 21.1368L8.23401 21.1278C8.24603 21.1308 8.25505 21.1398 8.26407 21.1428C8.29412 21.1519 8.31516 21.1549 8.35423 21.1609C8.94932 21.3416 9.42719 20.9712 9.42719 20.9712L9.45424 20.9501L11.6723 18.9264L15.3901 21.7843L15.4742 21.8204C16.2496 22.1607 17.0341 21.971 17.4488 21.6367C17.8666 21.2994 18.0289 20.8688 18.0289 20.8688L18.0559 20.7995L20.9292 6.05247C21.0103 5.68809 21.0313 5.34779 20.9412 5.01654C20.851 4.68528 20.6196 4.3751 20.3401 4.20947C20.0576 4.04083 19.7781 3.98963 19.5196 4.00168ZM19.4414 5.58269C19.4384 5.63087 19.4475 5.62485 19.4264 5.7182V5.72724L16.5802 20.3207C16.5682 20.3418 16.5472 20.387 16.4901 20.4321C16.43 20.4803 16.3819 20.5104 16.1324 20.4111L11.5851 16.9178L8.83811 19.4263L9.41516 15.7343C9.41516 15.7343 16.5382 9.08199 16.8447 8.7959C17.1513 8.50982 17.0491 8.44959 17.0491 8.44959C17.0701 8.10026 16.5862 8.3472 16.5862 8.3472L7.21816 14.1623L7.21515 14.1473L2.72497 12.6325V12.6295C2.72196 12.6295 2.71595 12.6265 2.71295 12.6265C2.71595 12.6265 2.73699 12.6174 2.73699 12.6174L2.76104 12.6054L2.78508 12.5964C2.78508 12.5964 6.79439 10.9039 10.8698 9.18438C12.9105 8.32311 14.9663 7.45581 16.5472 6.78727C18.128 6.12174 19.2972 5.63388 19.3633 5.60678C19.4264 5.58269 19.3964 5.58269 19.4414 5.58269Z" fill="#A6A6A6"/>
</svg>
